<svg xmlns="http://www.w3.org/2000/svg" xmlns:xlink="http://www.w3.org/1999/xlink" width="85.466" height="70.226" viewBox="0 0 85.466 70.226"><defs><style>.a{fill:#1d4f9f;}.b{clip-path:url(#a);}</style><clipPath id="a"><rect class="a" width="85.466" height="70.226"/></clipPath></defs><g class="b"><path class="a" d="M42.739.026q20.2,0,40.409,0A2.8,2.8,0,0,1,84.368.1a2.932,2.932,0,0,1,1.02,1.042c.144.232.045.619.045.937q0,25.442,0,50.885c0,1.837-.163,2-2.017,2H53.3c-1.317,0-1.329.012-1.331,1.33q0,3.288,0,6.575c0,1.187.061,1.248,1.232,1.249q6.242,0,12.485,0c1.249,0,1.252,0,1.255,1.288s-.023,2.542.009,3.811c.019.731-.249,1.014-1,1.005-2.636-.032-5.273-.012-7.91-.012H19.917c-1.434,0-1.434,0-1.435-1.423,0-1.175.042-2.352-.014-3.525-.041-.863.247-1.169,1.139-1.161,4.193.039,8.387.018,12.58.017,1.272,0,1.348-.078,1.349-1.356q0-3.144,0-6.289c0-1.5-.006-1.509-1.475-1.509H1.944C.281,54.965,0,54.69,0,53.048Q0,27.51,0,1.972C0,.346.312.028,1.949.027q20.4,0,40.79,0m-.017,6.13H7.554c-1.4,0-1.423.023-1.423,1.451q0,19.916,0,39.832c0,1.4.035,1.434,1.443,1.434H77.909c1.391,0,1.393,0,1.393-1.363q0-19.963,0-39.927c0-1.426,0-1.427-1.413-1.428H42.722m3.064,53.43c0-1.238-.013-2.475.006-3.712.01-.641-.254-.922-.905-.913q-2.142.031-4.284,0c-.684-.01-.982.278-.978.963q.019,3.617,0,7.235c0,.695.315.973.984.967q2.142-.018,4.284,0c.644.006.913-.279.9-.922-.022-1.206-.006-2.412-.006-3.617" transform="translate(0 0)"/><path class="a" d="M66.144,57.155c0,2.7-.025,5.4.015,8.093.013.838-.276,1.094-1.1,1.089q-8.046-.044-16.093,0c-.891.005-1.146-.311-1.142-1.166q.042-8,0-16c-.006-.933.337-1.215,1.224-1.211q7.951.036,15.9,0c.879,0,1.239.244,1.219,1.192-.057,2.665-.02,5.331-.02,8m-6.109.056c0-.73-.023-1.461.007-2.19.026-.651-.248-.925-.9-.918-1.429.017-2.857.019-4.286,0-.663-.01-.915.32-.915.93q0,2.142,0,4.285c0,.616.27.929.927.919q2.142-.033,4.286,0c.664.009.906-.295.883-.93-.026-.7-.006-1.4-.006-2.095" transform="translate(-35.644 -35.754)"/><path class="a" d="M161.987,54.112q-8.529,0-17.058,0c-1.194,0-1.255-.06-1.259-1.222,0-1.239.048-2.48-.017-3.715-.049-.946.353-1.207,1.232-1.2,5.749.022,11.5.011,17.248.011q8.386,0,16.772,0c1.37,0,1.371.007,1.373,1.386,0,1.207-.047,2.416.016,3.62.046.891-.286,1.144-1.155,1.139-5.717-.032-11.435-.016-17.153-.016" transform="translate(-107.077 -35.758)"/><path class="a" d="M161.985,102.035H145.024c-1.3,0-1.332-.039-1.334-1.35,0-1.238.031-2.478-.012-3.715-.027-.786.285-1.08,1.058-1.072,2.255.024,4.51.008,6.765.008h27.062c1.735,0,1.735,0,1.735,1.685q0,1.477,0,2.954c0,1.491,0,1.491-1.448,1.491H161.985" transform="translate(-107.097 -71.482)"/><path class="a" d="M47.883,147.082c0-.729.007-1.459,0-2.188-.008-.589.245-.869.858-.862q2.236.026,4.473,0c.579-.006.786.267.782.815q-.018,2.236,0,4.472c0,.549-.205.819-.783.813q-2.236-.023-4.473,0c-.613.007-.864-.275-.856-.863.01-.729,0-1.459,0-2.188" transform="translate(-35.69 -107.363)"/><path class="a" d="M101.916,147.078c0,.729-.017,1.46.005,2.188.018.594-.206.874-.831.865-1.491-.021-2.982-.014-4.473,0-.565,0-.809-.268-.808-.811q0-2.236,0-4.472c0-.542.24-.818.806-.813,1.491.01,2.982.017,4.473,0,.623-.009.851.267.833.863-.022.729-.005,1.459-.005,2.188" transform="translate(-71.417 -107.358)"/><path class="a" d="M170.809,144.029c.73,0,1.46.015,2.189,0,.572-.015.8.25.792.8-.012,1.491-.016,2.982,0,4.472.008.623-.276.834-.87.826q-2.189-.032-4.378,0c-.608.007-.869-.26-.866-.854.007-1.459.012-2.918,0-4.377-.006-.663.315-.9.945-.873.729.027,1.459.006,2.189.007" transform="translate(-124.986 -107.354)"/><path class="a" d="M218.708,150.126c-.73,0-1.46-.017-2.19.006-.6.019-.879-.248-.877-.844q.007-2.189,0-4.379c0-.577.219-.886.843-.879q2.237.025,4.474,0c.574-.007.811.253.811.8,0,1.523.034,3.048-.037,4.567a1.069,1.069,0,0,1-.743.7,17.537,17.537,0,0,1-2.28.034" transform="translate(-160.74 -107.36)"/><path class="a" d="M266.651,150.122c-.73,0-1.46-.018-2.19.006-.593.019-.894-.222-.892-.828,0-1.491,0-2.983,0-4.474,0-.547.262-.8.823-.8,1.491.013,2.983.021,4.474,0,.641-.01.834.309.831.878q-.011,2.189,0,4.379c0,.59-.239.874-.858.849-.729-.029-1.46-.007-2.19-.007" transform="translate(-196.466 -107.356)"/></g></svg>