<svg xmlns="http://www.w3.org/2000/svg" xmlns:xlink="http://www.w3.org/1999/xlink" width="43.701" height="70.226" viewBox="0 0 43.701 70.226"><defs><style>.a{fill:#1d4f9f;}.b{clip-path:url(#a);}</style><clipPath id="a"><rect class="a" width="43.701" height="70.226"/></clipPath></defs><g class="b"><path class="a" d="M2.271,136.454l41.518-42.86c.054.544.117.879.118,1.215.006,6.426,0,12.852.013,19.278a1.427,1.427,0,0,1-.786,1.5Q22.025,127.008.942,138.479c-.171.093-.36.151-.652.272V91.192l13.927,9.033-12.155,36.1.208.127" transform="translate(-0.218 -68.525)"/><path class="a" d="M.166,0,42.112,22.8l-9.168,6.623c-1.409,1.017-2.79,2.078-4.249,3.019a1.845,1.845,0,0,1-1.526.152Q13.952,26.2.79,19.7a1.512,1.512,0,0,1-.764-1.06C-.016,12.586,0,6.536.014.486A2.292,2.292,0,0,1,.166,0" transform="translate(0)"/></g></svg>