<svg xmlns="http://www.w3.org/2000/svg" xmlns:xlink="http://www.w3.org/1999/xlink" width="103.254" height="103.254" viewBox="0 0 103.254 103.254"><defs><style>.a{fill:#1d4f9f;}.b{clip-path:url(#a);}</style><clipPath id="a"><rect class="a" width="103.254" height="103.254"/></clipPath></defs><path class="a" d="M198.275,54.027h-1.807V52.248h1.807Zm0-3.557h-1.807V48.691h1.807Zm0-3.557h-1.807V45.134h1.807Zm0-3.557h-1.807V41.577h1.807Zm0-3.557h-1.807V38.02h1.807Z" transform="translate(-145.754 -28.206)"/><g class="b"><path class="a" d="M192.357,4.082A4.082,4.082,0,1,1,188.275,0a4.082,4.082,0,0,1,4.082,4.082" transform="translate(-136.648)"/><path class="a" d="M198.354,318.335h-1.807v-1.7h1.807Zm0-3.4h-1.807v-1.7h1.807Zm0-3.4h-1.807v-1.7h1.807Zm0-3.4h-1.807v-1.7h1.807Zm0-3.4h-1.807v-1.7h1.807Z" transform="translate(-145.813 -224.816)"/><path class="a" d="M184.192,372.467a4.082,4.082,0,1,1,4.082,4.082,4.082,4.082,0,0,1-4.082-4.082" transform="translate(-136.647 -273.295)"/><path class="a" d="M299.983,196.468h1.778v1.807h-1.778Zm3.557,0h1.779v1.807H303.54Zm3.557,0h1.779v1.807H307.1Zm3.557,0h1.779v1.807h-1.779Zm3.557,0h1.779v1.807h-1.779Z" transform="translate(-222.55 -145.754)"/><path class="a" d="M372.467,192.357a4.082,4.082,0,1,1,4.082-4.082,4.082,4.082,0,0,1-4.082,4.082" transform="translate(-273.295 -136.648)"/><path class="a" d="M37.715,196.547h1.7v1.807h-1.7Zm3.4,0h1.7v1.807h-1.7Zm3.4,0h1.7v1.807h-1.7Zm3.4,0h1.7v1.807h-1.7Zm3.4,0h1.7v1.807h-1.7Z" transform="translate(-27.98 -145.813)"/><path class="a" d="M4.082,184.192A4.082,4.082,0,1,1,0,188.274a4.082,4.082,0,0,1,4.082-4.082" transform="translate(0 -136.647)"/><path class="a" d="M269.475,95.559,268.2,94.282l1.257-1.258,1.278,1.278Zm2.515-2.515-1.278-1.277,1.258-1.258,1.277,1.278Zm2.515-2.515-1.278-1.278,1.258-1.258,1.278,1.278Zm2.515-2.515-1.278-1.278L277,85.478l1.277,1.278Zm2.515-2.515-1.278-1.278,1.258-1.258,1.277,1.278Z" transform="translate(-198.969 -61.548)"/><path class="a" d="M321.4,60.918a4.082,4.082,0,1,1,0-5.773,4.082,4.082,0,0,1,0,5.773" transform="translate(-233.272 -40.023)"/><path class="a" d="M84.08,282.508,82.8,281.231l1.2-1.2,1.277,1.277Zm2.4-2.4-1.278-1.278,1.2-1.2,1.277,1.278Zm2.4-2.4-1.278-1.277,1.2-1.2,1.278,1.278Zm2.4-2.4-1.277-1.278,1.2-1.2,1.278,1.277Zm2.4-2.4-1.278-1.278,1.2-1.2,1.278,1.277Z" transform="translate(-61.429 -200.613)"/><path class="a" d="M55.145,315.632a4.082,4.082,0,1,1,0,5.773,4.082,4.082,0,0,1,0-5.773" transform="translate(-40.023 -233.272)"/><path class="a" d="M268.254,269.475l1.277-1.277,1.258,1.257-1.278,1.278Zm2.515,2.515,1.277-1.278,1.258,1.258-1.278,1.277Zm2.515,2.515,1.278-1.278,1.258,1.258-1.278,1.278Zm2.515,2.515,1.278-1.278L278.335,277l-1.278,1.277Zm2.515,2.515,1.278-1.278,1.258,1.258-1.278,1.277Z" transform="translate(-199.011 -198.969)"/><path class="a" d="M315.632,321.4a4.082,4.082,0,1,1,5.773,0,4.082,4.082,0,0,1-5.773,0" transform="translate(-233.272 -233.272)"/><path class="a" d="M82.747,84.08,84.025,82.8l1.2,1.2-1.277,1.277Zm2.4,2.4,1.278-1.278,1.2,1.2-1.278,1.277Zm2.4,2.4,1.277-1.278,1.2,1.2-1.278,1.278Zm2.4,2.4,1.278-1.277,1.2,1.2L91.16,92.493Zm2.4,2.4,1.278-1.278,1.2,1.2L93.564,94.9Z" transform="translate(-61.388 -61.429)"/><path class="a" d="M60.918,55.145a4.082,4.082,0,1,1-5.773,0,4.082,4.082,0,0,1,5.773,0" transform="translate(-40.023 -40.023)"/><path class="a" d="M154.9,164.418v-10H106.755v10h9v4.41h-9v10H154.9v-10h-8.76v-4.41Zm-6.289-6.078h2.244v2.244h-2.244Zm0,14.405h2.244v2.244h-2.244Zm-9.43-14.405h2.244v2.244h-2.244Zm4.715,10.488H118v-4.41h25.89Zm-32.831-8.244a1.122,1.122,0,1,1,0-2.244h17.7a1.122,1.122,0,0,1,0,2.244Zm17.7,14.405h-17.7a1.122,1.122,0,0,1,0-2.244h17.7a1.122,1.122,0,0,1,0,2.244m12.656,0h-2.244v-2.244h2.244Zm4.715,0h-2.244v-2.244h2.244Zm0-14.405h-2.244v-2.244h2.244Z" transform="translate(-79.199 -114.562)"/></g></svg>