<svg xmlns="http://www.w3.org/2000/svg" xmlns:xlink="http://www.w3.org/1999/xlink" width="80.464" height="70.226" viewBox="0 0 80.464 70.226"><defs><style>.a{fill:#fff;}.b{clip-path:url(#a);}</style><clipPath id="a"><rect class="a" width="80.464" height="70.226"/></clipPath></defs><g class="b"><path class="a" d="M76.063,144.5c.745,0,1.378-.012,2.012,0a2.215,2.215,0,0,1,2.382,2.4c.012,1.623.006,3.246,0,4.868a2.262,2.262,0,0,1-2.548,2.554q-15.442,0-30.884,0H2.737c-1.956,0-2.735-.795-2.734-2.768,0-1.57-.01-3.139,0-4.709a2.2,2.2,0,0,1,2.277-2.341c.66-.026,1.322,0,2.117,0v-1.146q0-19.473-.005-38.945a3.7,3.7,0,0,1,.988-3.008,4.467,4.467,0,0,1,2.18-1.167,41.965,41.965,0,0,1,4.749-.054v3.691H8.2v40.575H72.253V103.92H52.577v-3.766c.249-.013.5-.038.756-.038q9.218,0,18.435,0c2.813,0,4.292,1.469,4.293,4.274q.006,19.313,0,38.626V144.5M40.228,147.78v0c-3.427,0-6.854-.007-10.281,0a1.619,1.619,0,0,0-.729,3.106,3.042,3.042,0,0,0,1.015.134q9.4.01,18.809,0c.584,0,1.172.026,1.752-.023a1.54,1.54,0,0,0,1.428-1.539,1.591,1.591,0,0,0-1.4-1.664,5.912,5.912,0,0,0-.8-.022q-4.9,0-9.8,0" transform="translate(0 -84.102)"/><path class="a" d="M117.095,33.6c-1.243,1.212-2.421,1.005-3.05-.461a3.985,3.985,0,0,0-.309-.645,1.308,1.308,0,0,0-1.519-.594,1.284,1.284,0,0,0-1.047,1.243c-.018.238,0,.479-.01.718a1.67,1.67,0,0,1-2.573,1.5,2.194,2.194,0,0,1-.742-1.126,5.411,5.411,0,0,1-.051-1.107,1.336,1.336,0,0,0-1.159-1.244,1.315,1.315,0,0,0-1.511.765c-.086.164-.149.34-.222.511-.511,1.194-1.15,1.488-2.238,1.03s-1.324-1.124-.84-2.323a3.644,3.644,0,0,0,.257-.749,1.143,1.143,0,0,0-.665-1.39,3.173,3.173,0,0,0-1.558.073c-.243.054-.425.382-.636.584a1.426,1.426,0,0,1-2.287-.021,1.443,1.443,0,0,1-.061-2.349c.164-.174.342-.336.5-.516a1.31,1.31,0,0,0,.128-1.751,1.348,1.348,0,0,0-1.688-.512c-.226.077-.438.192-.661.278-1.026.4-1.675.089-2.131-1a1.416,1.416,0,0,1,.827-2.072,9.147,9.147,0,0,0,.869-.4,1.308,1.308,0,0,0,.645-1.5,1.283,1.283,0,0,0-1.221-1.077,4.673,4.673,0,0,0-.718-.013c-1.505.087-2.057-1.131-1.568-2.455.143-.388.748-.666,1.2-.858.318-.135.739,0,1.1-.053a1.326,1.326,0,0,0,1.208-1.105,1.352,1.352,0,0,0-.727-1.542,5.557,5.557,0,0,0-.588-.246c-1.142-.482-1.451-1.138-1.025-2.179.457-1.117,1.134-1.382,2.295-.914.293.118.638.333.9.265a2.215,2.215,0,0,0,1.3-.691A2.4,2.4,0,0,0,97.477,8.2c-.044-.224-.315-.42-.514-.592-1.108-.955-.722-2.113.5-2.844a1.251,1.251,0,0,1,1.548.2c.279.246.522.534.812.766a1.3,1.3,0,0,0,1.628.087,1.35,1.35,0,0,0,.591-1.6,3.6,3.6,0,0,0-.239-.59c-.681-1.5.216-2.239,1.5-2.483a1.255,1.255,0,0,1,1.373.753c.16.3.277.632.425.944a1.321,1.321,0,0,0,1.564.806A1.365,1.365,0,0,0,107.8,2.382a4.919,4.919,0,0,0,.014-.638c.012-1.225.5-1.745,1.646-1.744,1.162,0,1.67.515,1.7,1.715.005.239,0,.479.016.718a1.269,1.269,0,0,0,1,1.2,1.309,1.309,0,0,0,1.538-.557,4.016,4.016,0,0,0,.371-.792c.571-1.506,1.833-1.389,2.809-.553a2.123,2.123,0,0,1,.387,1.42,3.934,3.934,0,0,1-.379,1.122A1.266,1.266,0,0,0,117.45,5.8a1.266,1.266,0,0,0,1.625-.038c.311-.248.57-.56.878-.811a1.4,1.4,0,0,1,2.054.217c.745.73.848,1.415.291,2.107-.216.268-.486.492-.714.751a1.362,1.362,0,0,0-.143,1.761,1.339,1.339,0,0,0,1.611.545,4.859,4.859,0,0,0,.588-.244,1.629,1.629,0,0,1,2.4,1.714,2.462,2.462,0,0,1-.828,1.233c-.226.225-.638.25-.937.418a1.41,1.41,0,0,0,.457,2.624,4.95,4.95,0,0,0,.8.03c1.205.019,1.724.523,1.723,1.678,0,1.127-.551,1.647-1.757,1.662-.213,0-.427-.008-.638.011a1.3,1.3,0,0,0-1.275,1.109,1.332,1.332,0,0,0,.732,1.532c.253.142.539.222.806.342a1.411,1.411,0,0,1,.841,1.949,1.612,1.612,0,0,1-2.818.754,42.16,42.16,0,0,1-2.971-3.007c-.17-.188-.111-.686-.015-1a11.128,11.128,0,0,0-5.591-13.321,10.616,10.616,0,0,0-12.172,1.321A10.5,10.5,0,0,0,98.672,20.6c1.23,4.651,4.428,7.408,9.166,8.227a21.917,21.917,0,0,0,3.649-.039,1.559,1.559,0,0,1,.989.232c1.554,1.49,3.063,3.028,4.62,4.584" transform="translate(-77.019 0)"/><path class="a" d="M157.855,75.478c1.633,1.639,3.168,3.184,4.709,4.725.908.907,1.5.936,2.464.083a10.056,10.056,0,0,0,1.166-1.2,1.371,1.371,0,0,0-.126-2.166c-1.441-1.456-2.895-2.9-4.342-4.347-.13-.13-.252-.268-.439-.467a6.47,6.47,0,0,1,4.429-.609,7.2,7.2,0,0,1,5.581,9.174.944.944,0,0,0,.262,1.1q7.525,7.484,15.008,15.01a1,1,0,0,0,1.171.277,7.243,7.243,0,1,1,3.561,14.032,7.172,7.172,0,0,1-8.627-5.718,17.7,17.7,0,0,1,.168-3.54,1.317,1.317,0,0,0-.222-.888q-7.562-7.616-15.153-15.2a.914.914,0,0,0-1.056-.2,7.239,7.239,0,0,1-8.868-9.368c.063-.195.167-.377.313-.7M185.2,105.117c-.156,1.542,2.38,3.715,4.476,3.788a5.009,5.009,0,0,0,3.463-1.365,5.914,5.914,0,0,0,1.553-3.471c.161-1.01-1.428-3.325-2.042-3.839a4.4,4.4,0,0,0-4.233-.8,3.755,3.755,0,0,0-2.038,1.059c-1.007,1.4-2.035,2.906-1.179,4.626" transform="translate(-131.979 -59.943)"/></g></svg>