<svg xmlns="http://www.w3.org/2000/svg" xmlns:xlink="http://www.w3.org/1999/xlink" width="262.236" height="56.924" viewBox="0 0 262.236 56.924"><defs><style>.a{fill:#fff;}.b{clip-path:url(#a);}</style><clipPath id="a"><rect class="a" width="262.236" height="56.924"/></clipPath></defs><g transform="translate(0 0)"><g class="b" transform="translate(0 0)"><path class="a" d="M45.714.876a13.5,13.5,0,0,1,2.561,7.1A11.421,11.421,0,0,1,51.76,16.2V40.3A11.459,11.459,0,0,1,40.3,51.76H21.783a4.1,4.1,0,1,1,0-8.195h12.94a8.843,8.843,0,0,0,0-17.686H21.783a4.1,4.1,0,1,1,0-8.194h12.94A8.843,8.843,0,1,0,34.723,0H16.02A16.02,16.02,0,0,0,0,16.02V40.486A16.023,16.023,0,0,0,10.792,55.629a13.5,13.5,0,0,1-2.561-7.1A11.424,11.424,0,0,1,4.745,40.3V16.2A11.459,11.459,0,0,1,16.2,4.745H34.723a4.1,4.1,0,1,1,0,8.195H21.783a8.843,8.843,0,1,0,0,17.686h12.94a4.1,4.1,0,1,1,0,8.195H21.783a8.843,8.843,0,1,0,0,17.685h18.7a16.02,16.02,0,0,0,16.02-16.02V16.02A16.025,16.025,0,0,0,45.714.876" transform="translate(0 0)"/><path class="a" d="M125.853,74.614l2.73-3.308a7.691,7.691,0,0,0,6.3,3.308c1.959,0,3.405-1.028,3.405-2.538,0-.963-.707-1.8-2.152-2.474-.321-.16-1.092-.449-2.345-.931a24.679,24.679,0,0,1-2.794-1.285c-2.506-1.445-3.759-3.4-3.759-5.91a6.263,6.263,0,0,1,2.249-4.947,8.6,8.6,0,0,1,5.846-1.991,10.515,10.515,0,0,1,7.805,3.212L140.6,61.219a7.5,7.5,0,0,0-5.2-2.217c-1.9,0-3.051.9-3.051,2.281,0,.932.642,1.7,1.927,2.345l2.345,1.028q1.975.819,2.89,1.253c2.7,1.316,4.048,3.276,4.048,5.91a6.487,6.487,0,0,1-2.41,5.2,9.44,9.44,0,0,1-6.3,2.024,10.68,10.68,0,0,1-8.994-4.432" transform="translate(-51.126 -22.155)"/><path class="a" d="M164.172,75.524a11.8,11.8,0,0,1-3.533-8.673,12.23,12.23,0,0,1,12.366-12.367,12.285,12.285,0,0,1,12.367,12.3,11.71,11.71,0,0,1-3.6,8.673,12.728,12.728,0,0,1-17.6.064m14.1-14.166a7.445,7.445,0,0,0-10.536,0,7.925,7.925,0,0,0-.032,10.825,7.422,7.422,0,0,0,12.72-5.4,7.336,7.336,0,0,0-2.152-5.429" transform="translate(-65.257 -22.133)"/><path class="a" d="M207.271,78.925V55.188h4.786V74.364H224.1v4.561Z" transform="translate(-84.2 -22.419)"/><path class="a" d="M240.6,55.188h4.786V69.931c0,3.18,1.7,4.786,4.5,4.786,2.7,0,4.433-1.7,4.433-4.786V55.188h4.818V70.252c0,2.988-.867,5.236-2.634,6.778a9.606,9.606,0,0,1-6.617,2.313,9.747,9.747,0,0,1-6.649-2.313c-1.766-1.541-2.634-3.79-2.634-6.778Z" transform="translate(-97.738 -22.419)"/><path class="a" d="M283.565,59.781h-6.777V55.188h18.373v4.593h-6.777V78.925h-4.818Z" transform="translate(-112.44 -22.419)"/><rect class="a" width="4.786" height="23.738" transform="translate(185.676 32.769)"/><path class="a" d="M329.281,75.524a11.8,11.8,0,0,1-3.533-8.673,12.23,12.23,0,0,1,12.366-12.367,12.285,12.285,0,0,1,12.367,12.3,11.71,11.71,0,0,1-3.6,8.673,12.728,12.728,0,0,1-17.6.064m14.1-14.166a7.445,7.445,0,0,0-10.536,0,7.925,7.925,0,0,0-.032,10.825,7.422,7.422,0,0,0,12.72-5.4,7.336,7.336,0,0,0-2.152-5.429" transform="translate(-132.329 -22.133)"/><path class="a" d="M387.927,55.188h4.69V78.925h-3.244l-12.3-14.551V78.925h-4.69V55.188H375.4l12.527,14.679Z" transform="translate(-151.273 -22.419)"/><path class="a" d="M411.44,74.614l2.73-3.308a7.691,7.691,0,0,0,6.3,3.308c1.959,0,3.405-1.028,3.405-2.538,0-.963-.707-1.8-2.152-2.474-.321-.16-1.092-.449-2.345-.931a24.679,24.679,0,0,1-2.794-1.285c-2.506-1.445-3.759-3.4-3.759-5.91a6.263,6.263,0,0,1,2.249-4.947,8.6,8.6,0,0,1,5.846-1.991,10.515,10.515,0,0,1,7.805,3.212l-2.538,3.469A7.5,7.5,0,0,0,420.98,59c-1.9,0-3.051.9-3.051,2.281,0,.932.642,1.7,1.927,2.345l2.345,1.028q1.975.819,2.89,1.253c2.7,1.316,4.048,3.276,4.048,5.91a6.487,6.487,0,0,1-2.409,5.2,9.44,9.44,0,0,1-6.3,2.024,10.68,10.68,0,0,1-8.994-4.432" transform="translate(-167.14 -22.155)"/><path class="a" d="M345.363,18.691a10.586,10.586,0,0,1-3.149-7.7,10.629,10.629,0,0,1,3.177-7.756,10.78,10.78,0,0,1,15.37-.029,10.528,10.528,0,0,1,3.206,7.728,10.527,10.527,0,0,1-3.206,7.728,10.883,10.883,0,0,1-15.4.029m14.53-.8a9.581,9.581,0,0,0,2.781-6.922,9.6,9.6,0,0,0-2.781-6.952,9.082,9.082,0,0,0-6.8-2.842,9.224,9.224,0,0,0-6.832,2.871,9.583,9.583,0,0,0-2.781,6.923,9.581,9.581,0,0,0,2.781,6.922,9.669,9.669,0,0,0,13.633,0" transform="translate(-139.018 0)"/><path class="a" d="M125.853,22.035V0h12.762V1.76H127.672V9.989h9.721v1.759h-9.721V22.035Z" transform="translate(-51.126 0)"/><path class="a" d="M165.588,22.035l-5.635-9.3H155.54v9.3h-1.819V0h6.649a6.707,6.707,0,0,1,5.159,1.908,6.166,6.166,0,0,1,1.819,4.472,6.117,6.117,0,0,1-1.432,3.966,6.391,6.391,0,0,1-4.025,2.206l5.9,9.482ZM155.54,1.729V11h4.412c3.578,0,5.517-1.908,5.517-4.681,0-2.714-1.939-4.592-5.07-4.592Z" transform="translate(-62.446 0)"/><path class="a" d="M197,22.035l-2.624-6.679h-9.273l-2.624,6.679h-2L189.281,0h.984L199,22.035ZM189.758,3.25,185.7,13.657h8.08Z" transform="translate(-73.319 0)"/><path class="a" d="M217.542,22.035V0h.805l9.69,14.252L237.639,0h.835V22.035h-1.819V4.5l-8.408,12.464H227.8L219.361,4.533v17.5Z" transform="translate(-88.373 0)"/><path class="a" d="M262.935,22.035V0H276.2V1.729h-11.45v8.289h10.675v1.7H264.754v8.587h11.51v1.73Z" transform="translate(-106.813 0)"/><path class="a" d="M297.21,22.035,289.846,0h1.848l5.993,18.427L304.009,0h.805l6.411,18.4L317.158,0h1.819l-7.305,22.035h-.894L304.426,3.489,298.1,22.035Z" transform="translate(-117.745 0)"/><path class="a" d="M395.717,22.035l-5.635-9.3h-4.413v9.3H383.85V0H390.5a6.707,6.707,0,0,1,5.159,1.908,6.166,6.166,0,0,1,1.819,4.472,6.12,6.12,0,0,1-1.432,3.966,6.391,6.391,0,0,1-4.025,2.206l5.9,9.482ZM385.669,1.729V11h4.413c3.578,0,5.516-1.908,5.516-4.681,0-2.714-1.938-4.592-5.069-4.592Z" transform="translate(-155.932 0)"/><path class="a" d="M428.469,22.035l-8.557-10.317-3.161,3.7v6.619h-1.819V0h1.819V12.881L427.753,0h2.206l-8.826,10.406,9.661,11.628Z" transform="translate(-168.559 0)"/><path class="a" d="M368.8,13.836a.6.6,0,1,1,.6-.6.6.6,0,0,1-.6.6m0-.8a.193.193,0,1,0,.193.193.193.193,0,0,0-.193-.193" transform="translate(-149.574 -5.131)"/><path class="a" d="M370.333,9.924a.6.6,0,1,1,.6-.6.6.6,0,0,1-.6.6m0-.8a.193.193,0,1,0,.193.193.193.193,0,0,0-.193-.193" transform="translate(-150.196 -3.542)"/><path class="a" d="M355.346,9.924a.6.6,0,1,1,.6-.6.6.6,0,0,1-.6.6m0-.8a.193.193,0,1,0,.193.193.193.193,0,0,0-.193-.193" transform="translate(-144.108 -3.542)"/><path class="a" d="M351.434,8.391a.6.6,0,1,1,.6-.6.6.6,0,0,1-.6.6m0-.8a.193.193,0,1,0,.193.193.193.193,0,0,0-.193-.193" transform="translate(-142.519 -2.919)"/><path class="a" d="M364.888,27.29a.6.6,0,1,1,.6-.6.6.6,0,0,1-.6.6m0-.8a.193.193,0,1,0,.193.193.193.193,0,0,0-.193-.193" transform="translate(-147.984 -10.596)"/><path class="a" d="M368.6,28.823a.6.6,0,1,1,.6-.6.6.6,0,0,1-.6.6m0-.8a.193.193,0,1,0,.193.193.193.193,0,0,0-.193-.193" transform="translate(-149.494 -11.219)"/><path class="a" d="M351.434,23.378a.6.6,0,1,1,.6-.6.6.6,0,0,1-.6.6m0-.8a.193.193,0,1,0,.193.193.193.193,0,0,0-.193-.193" transform="translate(-142.519 -9.007)"/><path class="a" d="M349.9,27.1a.6.6,0,1,1,.6-.6.6.6,0,0,1-.6.6m0-.8a.193.193,0,1,0,.193.193.193.193,0,0,0-.193-.193" transform="translate(-141.896 -10.517)"/><path class="a" d="M365.82,22.806l-.29-.29,1.327-1.327a2.235,2.235,0,0,0,.654-1.579V17.072a.2.2,0,1,1,.41,0V19.78a2.233,2.233,0,0,1-.654,1.579Z" transform="translate(-148.49 -6.852)"/><path class="a" d="M364.629,11.78,363.3,10.453a2.234,2.234,0,0,0-1.579-.654h-2.538a.2.2,0,1,1,0-.41h2.708a2.232,2.232,0,0,1,1.579.654l1.447,1.447Z" transform="translate(-145.829 -3.814)"/><path class="a" d="M357.81,25.809H355.1a2.232,2.232,0,0,1-1.579-.654l-1.447-1.447.29-.29,1.327,1.327a2.234,2.234,0,0,0,1.579.654h2.538a.2.2,0,0,1,0,.41" transform="translate(-143.025 -9.513)"/><path class="a" d="M351.706,15.9h0a.2.2,0,0,1-.2-.2V12.991a2.232,2.232,0,0,1,.654-1.579L353.6,9.965l.29.29-1.327,1.327a2.231,2.231,0,0,0-.654,1.579V15.7a.2.2,0,0,1-.2.2" transform="translate(-142.791 -4.048)"/><path class="a" d="M364.671,8.9h.212A2.233,2.233,0,0,1,363.3,8.25a2.234,2.234,0,0,0-1.579-.654h-4.746a.2.2,0,1,1,0-.41h4.916a2.232,2.232,0,0,1,1.579.654,2.235,2.235,0,0,0,1.579.654h-.382Z" transform="translate(-144.933 -2.919)"/><path class="a" d="M369.082,22.56h-.41v.328a2.234,2.234,0,0,1,.654-1.579l.116-.116a2.232,2.232,0,0,0,.654-1.579V14.867a.2.2,0,0,1,.41,0v4.916a2.234,2.234,0,0,1-.654,1.579l-.116.116a2.233,2.233,0,0,0-.654,1.579Z" transform="translate(-149.767 -5.956)"/><path class="a" d="M358.335,28.394h-4.916a2.231,2.231,0,0,1-1.579-.654l-.116-.116a2.236,2.236,0,0,0-1.579-.654h.5v-.41h-.328a2.234,2.234,0,0,1,1.579.654l.116.116a2.236,2.236,0,0,0,1.579.654h4.747a.2.2,0,1,1,0,.41" transform="translate(-142.24 -10.789)"/><path class="a" d="M349.5,16.508h0a.2.2,0,0,1-.2-.2V11.387a2.234,2.234,0,0,1,.654-1.579,2.234,2.234,0,0,0,.654-1.579V8.61h.41V8.4a2.234,2.234,0,0,1-.654,1.579,2.234,2.234,0,0,0-.654,1.579V16.3a.2.2,0,0,1-.2.2" transform="translate(-141.896 -3.342)"/><path class="a" d="M359.169,19.649h-2.621a1.535,1.535,0,0,1-1.084-.449L354.4,18.137a1.533,1.533,0,0,1-.449-1.084V14.432a1.533,1.533,0,0,1,.449-1.084l1.063-1.063a1.533,1.533,0,0,1,1.084-.449h2.621a1.531,1.531,0,0,1,1.084.449l1.063,1.063a1.533,1.533,0,0,1,.449,1.084v2.621a1.533,1.533,0,0,1-.449,1.084L360.253,19.2a1.534,1.534,0,0,1-1.084.449m-2.457-.4h2.294a1.535,1.535,0,0,0,1.084-.449l.831-.832a1.533,1.533,0,0,0,.449-1.084V14.6a1.536,1.536,0,0,0-.449-1.085l-.831-.831a1.535,1.535,0,0,0-1.084-.449h-2.294a1.533,1.533,0,0,0-1.084.449l-.831.831a1.534,1.534,0,0,0-.449,1.085v2.293a1.532,1.532,0,0,0,.449,1.084l.831.832a1.533,1.533,0,0,0,1.084.449" transform="translate(-143.787 -4.808)"/><path class="a" d="M359.147,19.222h-.732a2.192,2.192,0,0,1-2.193-2.193V16.3a2.192,2.192,0,0,1,2.193-2.193h.732A2.193,2.193,0,0,1,361.34,16.3v.732a2.193,2.193,0,0,1-2.193,2.193" transform="translate(-144.709 -5.729)"/></g></g></svg>